# xmcd
#
# Track frame offsets:
#	151
#	14092
#	32948
#	47975
#	63399
#	77209
#	87800
#	97027
#	107341
#	116487
#	126694
#	137772
#	153491
#	166136
#	179838
#	191033
#	203194
#	213190
#	224381
#	238842
#	248971
#	259952
#	271757
#	283522
#	294213
#	303975
#	315815
#	325551
#	337336
#
# Disc length: 4669 seconds
#
# Revision: 0
# Processed by: cddbd v1.5.2PL0 Copyright (c) Steve Scherf et al.
# Submitted via: EasyCDDAExtractor 10.0.3.1
#
DISCID=b8123b1d
DTITLE=Various Artist - More Sweethearts
DYEAR=1900
DGENRE=Oldies
TTITLE0=Timi Yuro (Liberty) - Fever
TTITLE1=Gloria Jones (Uptown) - Heartbeat
TTITLE2=Thelma Houston (Dunhill) - Jumpin' Jack Flash
TTITLE3=Gladys Knight and The Pips (Vee Jay) - Queen Of Tears
TTITLE4=Wendy Rene (Stax) - After Laughter Comes Tears
TTITLE5=Irma Thomas (Minit) - Hittin' On Nothing
TTITLE6=The Ikettes (Atco) - Troubles On My Mind
TTITLE7=Inez Foxx (Symbol) - Broken Hearted Fool
TTITLE8=Madeleine Bell (Columbia) - You Don't Love Me No More
TTITLE9=Billie Davies (Decca) - Nobody's Home To Go Home To
TTITLE10=Petula Clark (Pye) - I [Who Have Nothing]
TTITLE11=Sandie Shaw (Pye) - Your Time Is Gonna Come
TTITLE12=Barbara Acklin (Brunswick) - Just Ain't No Love
TTITLE13=Brenda Holloway (Tamla) - Together 'Til The End Of Time
TTITLE14=The Glories (Date) - Don't Dial My Number
TTITLE15=The 2 Of Clubs (Fraternity) - Heart
TTITLE16=The Pussycats (Columbia) - I Want Your Love
TTITLE17=Jackie DeShannon (Liberty) - It's Love Baby
TTITLE18=Sharon Tandy (Atlantic) - Hold On
TTITLE19=Erma Franklin (Brunswick) - Gotta Find Me A Lover
TTITLE20=Dee Dee Sharp (Fairmount) - The Love I Feel For You
TTITLE21=Ann-Margret (RCA) - I Just Don't Understand
TTITLE22=Nancy Sinatra (Reprise) - Love Eyes
TTITLE23=Jean Knight (Dial) - Dirt
TTITLE24=Dana Gillespie (Decca) - You Just Gotta Know My Mind
TTITLE25=Olivia Newton-John (Decca) - Till You Say You'll Be Mine
TTITLE26=Lula (Decca) - Try To Understand
TTITLE27=Nancy Wilson (Capitol) - (You Don't Know) How Glad I Am
TTITLE28=Big Maybelle (Scepter) - I Just Don't Know What To Do With Myself
EXTD=
EXTT0=
EXTT1=
EXTT2=
EXTT3=
EXTT4=
EXTT5=
EXTT6=
EXTT7=
EXTT8=
EXTT9=
EXTT10=
EXTT11=
EXTT12=
EXTT13=
EXTT14=
EXTT15=
EXTT16=
EXTT17=
EXTT18=
EXTT19=
EXTT20=
EXTT21=
EXTT22=
EXTT23=
EXTT24=
EXTT25=
EXTT26=
EXTT27=
EXTT28=
PLAYORDER=
